<svg xmlns="http://www.w3.org/2000/svg" width="34.463" height="34.464" viewBox="0 0 34.463 34.464">
  <g id="Group_28" data-name="Group 28" transform="translate(-128.615 -5165.325)">
    <path id="Path_42" data-name="Path 42" d="M128.615,5195.655v-26.2a.438.438,0,0,0,.031-.232v-.15a3.865,3.865,0,0,1,.629-1.761,4.3,4.3,0,0,1,2.658-1.911,2.334,2.334,0,0,1,.51-.062h.143c.045-.007.09.014.132-.018h26.258c.031.028.069.011.107.018h.23a3.437,3.437,0,0,1,1.709.556,4.291,4.291,0,0,1,1.98,2.619,1.828,1.828,0,0,1,.062.476v.163c0,.038-.014.076.014.108v26.553c-.028.031-.01.07-.014.108v.187a2.939,2.939,0,0,1-.389,1.334,4.3,4.3,0,0,1-2.866,2.262,3.6,3.6,0,0,1-.43.062.4.4,0,0,1-.07,0h-.066c-.035,0-.073-.014-.1.014h-6.816a.378.378,0,0,1-.052-.278c0-.983,0-1.97,0-2.953v-8.285c0-.385.007-.392.385-.392h2.6c.268,0,.268,0,.365-.244q.959-2.391,1.914-4.783c.011-.028.021-.059.035-.09.035-.087.01-.132-.087-.136h-4.829c-.361,0-.385-.024-.385-.385v-3.908a1.06,1.06,0,0,1,1.2-1.209c.931-.007,1.862,0,2.793,0,.3,0,.3,0,.3-.3v-4.683c0-.049,0-.1,0-.146,0-.1-.042-.16-.153-.153l-.16,0c-1.278,0-2.553-.007-3.828,0a6.237,6.237,0,0,0-2.563.507,6.317,6.317,0,0,0-3.884,5.187,4.2,4.2,0,0,0-.028.549v4.231c0,.264-.048.312-.309.312h-3.682c-.059,0-.118,0-.181,0-.1,0-.16.042-.156.153,0,.049,0,.1,0,.146v4.7c0,.25.007.254.25.254h3.745c.288,0,.333.045.333.326v11.335a.342.342,0,0,1-.052.247H132.62c-.031-.028-.069-.011-.1-.014h-.139a4.331,4.331,0,0,1-3.72-3.62c-.007-.049-.007-.1-.011-.146v-.121c-.007-.077.021-.16-.031-.233" fill="#fff"/>
  </g>
</svg>
