<svg xmlns="http://www.w3.org/2000/svg" width="34.463" height="34.47" viewBox="0 0 34.463 34.47">
  <g id="Group_29" data-name="Group 29" transform="translate(-171.729 -5165.629)">
    <path id="Path_43" data-name="Path 43" d="M203,5189.837a9.375,9.375,0,0,1-.591,3.2,5.709,5.709,0,0,1-3.272,3.273,9.446,9.446,0,0,1-3.2.594c-1.821.079-2.366.1-6.965.1s-5.148-.021-6.962-.1a9.412,9.412,0,0,1-3.2-.594,5.292,5.292,0,0,1-1.98-1.286,5.413,5.413,0,0,1-1.285-1.98,9.5,9.5,0,0,1-.594-3.2c-.08-1.817-.1-2.362-.1-6.961s.021-5.152.1-6.962a9.457,9.457,0,0,1,.594-3.2,5.709,5.709,0,0,1,3.272-3.266,9.449,9.449,0,0,1,3.2-.594c1.817-.079,2.363-.1,6.962-.1s5.151.021,6.965.1a9.426,9.426,0,0,1,3.2.594,5.25,5.25,0,0,1,1.977,1.286,5.384,5.384,0,0,1,1.288,1.98,9.418,9.418,0,0,1,.591,3.2c.083,1.817.1,2.362.1,6.962s-.018,5.137-.1,6.957m3.1-14.075a12.565,12.565,0,0,0-.8-4.183,8.839,8.839,0,0,0-5.044-5.043,12.58,12.58,0,0,0-4.179-.8c-1.848-.091-2.431-.108-7.114-.108s-5.263.017-7.1.1a12.581,12.581,0,0,0-4.179.8,8.818,8.818,0,0,0-5.044,5.043,12.656,12.656,0,0,0-.8,4.183c-.087,1.844-.108,2.431-.108,7.111s.021,5.266.1,7.1a12.616,12.616,0,0,0,.8,4.183,8.814,8.814,0,0,0,5.044,5.044,12.6,12.6,0,0,0,4.179.8c1.841.08,2.425.1,7.107.1s5.263-.021,7.1-.1a12.606,12.606,0,0,0,4.183-.8,8.815,8.815,0,0,0,5.04-5.044,12.549,12.549,0,0,0,.8-4.183c.079-1.837.1-2.424.1-7.1s-.007-5.267-.087-7.1" fill="#fff"/>
    <path id="Path_44" data-name="Path 44" d="M188.967,5188.611a5.744,5.744,0,1,1,5.746-5.746,5.745,5.745,0,0,1-5.746,5.746m0-14.6a8.854,8.854,0,1,0,8.855,8.854,8.858,8.858,0,0,0-8.855-8.854" fill="#fff"/>
    <path id="Path_45" data-name="Path 45" d="M200.24,5173.661a2.067,2.067,0,1,1-2.067-2.067,2.065,2.065,0,0,1,2.067,2.067" fill="#fff"/>
  </g>
</svg>
